<svg width="20" height="18" viewBox="0 0 20 18" fill="none" xmlns="http://www.w3.org/2000/svg">
<path d="M1.19995 0.2C0.758123 0.2 0.399951 0.558172 0.399951 1C0.399951 1.44183 0.758123 1.8 1.19995 1.8V0.2ZM4.47268 1L5.25352 0.825989C5.172 0.460183 4.84746 0.2 4.47268 0.2V1ZM6.66541 10.8395L7.44976 10.6821C7.44865 10.6765 7.44748 10.671 7.44625 10.6655L6.66541 10.8395ZM8.30177 12.1429V11.3429C8.29671 11.3429 8.29166 11.3429 8.2866 11.343L8.30177 12.1429ZM16.2545 12.1429L16.2697 11.343C16.2646 11.3429 16.2596 11.3429 16.2545 11.3429V12.1429ZM17.8909 10.8395L17.1105 10.6632C17.1091 10.6694 17.1078 10.6757 17.1065 10.6821L17.8909 10.8395ZM19.2 5.04762L19.9803 5.22399C20.0339 4.98681 19.9767 4.73812 19.8249 4.54817C19.6731 4.35821 19.4431 4.24762 19.2 4.24762V5.04762ZM5.29086 4.24762C4.84903 4.24762 4.49086 4.60579 4.49086 5.04762C4.49086 5.48945 4.84903 5.84762 5.29086 5.84762V4.24762ZM7.76359 16.1905C7.76359 16.192 7.76344 16.1917 7.76369 16.1911C7.76369 16.1911 7.76313 16.1924 7.76128 16.1942C7.75943 16.196 7.75722 16.1975 7.75504 16.1984C7.75337 16.1991 7.75061 16.2 7.74541 16.2V17.8C8.63106 17.8 9.36359 17.0874 9.36359 16.1905H7.76359ZM7.74541 16.2C7.7402 16.2 7.73744 16.1991 7.73577 16.1984C7.73359 16.1975 7.73139 16.196 7.72953 16.1942C7.72768 16.1924 7.72712 16.1911 7.72712 16.1911C7.72737 16.1917 7.72722 16.192 7.72722 16.1905H6.12722C6.12722 17.0874 6.85975 17.8 7.74541 17.8V16.2ZM7.72722 16.1905C7.72722 16.1889 7.72737 16.1893 7.72712 16.1898C7.72712 16.1899 7.72768 16.1886 7.72953 16.1867C7.73138 16.1849 7.73359 16.1835 7.73577 16.1826C7.73744 16.1819 7.7402 16.181 7.74541 16.181V14.581C6.85976 14.581 6.12722 15.2936 6.12722 16.1905H7.72722ZM7.74541 16.181C7.75061 16.181 7.75337 16.1819 7.75504 16.1826C7.75722 16.1835 7.75943 16.1849 7.76128 16.1867C7.76313 16.1886 7.76369 16.1899 7.76369 16.1898C7.76344 16.1893 7.76359 16.1889 7.76359 16.1905H9.36359C9.36359 15.2936 8.63106 14.581 7.74541 14.581V16.181ZM16.7636 16.1905C16.7636 16.192 16.7634 16.1917 16.7637 16.1911C16.7637 16.1911 16.7631 16.1924 16.7613 16.1942C16.7594 16.196 16.7572 16.1975 16.755 16.1984C16.7534 16.1991 16.7506 16.2 16.7454 16.2V17.8C17.6311 17.8 18.3636 17.0874 18.3636 16.1905H16.7636ZM16.7454 16.2C16.7402 16.2 16.7374 16.1991 16.7358 16.1984C16.7336 16.1975 16.7314 16.196 16.7295 16.1942C16.7277 16.1924 16.7271 16.1911 16.7271 16.1911C16.7274 16.1917 16.7272 16.192 16.7272 16.1905H15.1272C15.1272 17.0874 15.8598 17.8 16.7454 17.8V16.2ZM16.7272 16.1905C16.7272 16.1889 16.7274 16.1893 16.7271 16.1898C16.7271 16.1899 16.7277 16.1886 16.7295 16.1867C16.7314 16.1849 16.7336 16.1835 16.7358 16.1826C16.7374 16.1819 16.7402 16.181 16.7454 16.181V14.581C15.8598 14.581 15.1272 15.2936 15.1272 16.1905H16.7272ZM16.7454 16.181C16.7506 16.181 16.7534 16.1819 16.755 16.1826C16.7572 16.1835 16.7594 16.1849 16.7613 16.1867C16.7631 16.1886 16.7637 16.1899 16.7637 16.1898C16.7634 16.1893 16.7636 16.1889 16.7636 16.1905H18.3636C18.3636 15.2936 17.6311 14.581 16.7454 14.581V16.181ZM1.19995 1.8H4.47268V0.2H1.19995V1.8ZM3.69183 1.17401L5.88456 11.0135L7.44625 10.6655L5.25352 0.825989L3.69183 1.17401ZM5.88105 10.997C5.99324 11.5558 6.30018 12.0561 6.74589 12.4111L7.74272 11.1595C7.59012 11.038 7.4872 10.8686 7.44976 10.6821L5.88105 10.997ZM6.74589 12.4111C7.19142 12.7659 7.74757 12.9535 8.31694 12.9427L8.2866 11.343C8.08802 11.3468 7.89551 11.2812 7.74272 11.1595L6.74589 12.4111ZM8.30177 12.9429H16.2545V11.3429H8.30177V12.9429ZM16.2393 12.9427C16.8087 12.9535 17.3648 12.7659 17.8104 12.4111L16.8135 11.1595C16.6608 11.2812 16.4682 11.3468 16.2697 11.343L16.2393 12.9427ZM17.8104 12.4111C18.2561 12.0561 18.563 11.5558 18.6752 10.997L17.1065 10.6821C17.0691 10.8686 16.9662 11.038 16.8135 11.1595L17.8104 12.4111ZM18.6712 11.0159L19.9803 5.22399L18.4196 4.87125L17.1105 10.6632L18.6712 11.0159ZM19.2 4.24762H5.29086V5.84762H19.2V4.24762Z" fill="#101828"/>
</svg>
