<svg width="17" height="18" viewBox="0 0 17 18" fill="none" xmlns="http://www.w3.org/2000/svg">
<path d="M14.8001 17C14.8001 17.4418 15.1583 17.8 15.6001 17.8C16.0419 17.8 16.4001 17.4418 16.4001 17H14.8001ZM12.1001 11.6667V10.8667V11.6667ZM5.1001 11.6667V10.8667V11.6667ZM1.6001 15.2222H0.800098H1.6001ZM0.800098 17C0.800098 17.4418 1.15827 17.8 1.6001 17.8C2.04193 17.8 2.4001 17.4418 2.4001 17H0.800098ZM16.4001 17V15.2222H14.8001V17H16.4001ZM16.4001 15.2222C16.4001 14.0711 15.9501 12.9646 15.1451 12.1469L14.0048 13.2693C14.5126 13.7851 14.8001 14.4874 14.8001 15.2222H16.4001ZM15.1451 12.1469C14.3397 11.3287 13.2446 10.8667 12.1001 10.8667V12.4667C12.8121 12.4667 13.4975 12.7539 14.0048 13.2693L15.1451 12.1469ZM12.1001 10.8667H5.1001V12.4667H12.1001V10.8667ZM5.1001 10.8667C3.95556 10.8667 2.8605 11.3287 2.0551 12.1469L3.19535 13.2693C3.7027 12.7539 4.38812 12.4667 5.1001 12.4667V10.8667ZM2.0551 12.1469C1.25012 12.9646 0.800098 14.0711 0.800098 15.2222H2.4001C2.4001 14.4874 2.68757 13.7851 3.19535 13.2693L2.0551 12.1469ZM0.800098 15.2222V17H2.4001V15.2222H0.800098ZM11.3001 4.55556C11.3001 6.08933 10.0794 7.31111 8.6001 7.31111V8.91111C10.9868 8.91111 12.9001 6.94914 12.9001 4.55556H11.3001ZM8.6001 7.31111C7.12076 7.31111 5.9001 6.08933 5.9001 4.55556H4.3001C4.3001 6.94914 6.21344 8.91111 8.6001 8.91111V7.31111ZM5.9001 4.55556C5.9001 3.02178 7.12076 1.8 8.6001 1.8V0.2C6.21344 0.2 4.3001 2.16197 4.3001 4.55556H5.9001ZM8.6001 1.8C10.0794 1.8 11.3001 3.02178 11.3001 4.55556H12.9001C12.9001 2.16197 10.9868 0.2 8.6001 0.2V1.8Z" fill="#101828"/>
</svg>
