<svg width="12" height="12" viewBox="0 0 12 12" fill="none" xmlns="http://www.w3.org/2000/svg">
<path d="M8.75353 3.95353C8.94879 3.75827 8.94879 3.44168 8.75353 3.24642C8.55827 3.05116 8.24168 3.05116 8.04642 3.24642L8.75353 3.95353ZM3.24642 8.04642C3.05116 8.24168 3.05116 8.55827 3.24642 8.75353C3.44168 8.94879 3.75827 8.94879 3.95353 8.75353L3.24642 8.04642ZM3.95353 3.24642C3.75827 3.05116 3.44168 3.05116 3.24642 3.24642C3.05116 3.44168 3.05116 3.75827 3.24642 3.95353L3.95353 3.24642ZM8.04642 8.75353C8.24168 8.94879 8.55827 8.94879 8.75353 8.75353C8.94879 8.55827 8.94879 8.24168 8.75353 8.04642L8.04642 8.75353ZM8.04642 3.24642L3.24642 8.04642L3.95353 8.75353L8.75353 3.95353L8.04642 3.24642ZM3.24642 3.95353L8.04642 8.75353L8.75353 8.04642L3.95353 3.24642L3.24642 3.95353Z" fill="#7F56D9"/>
</svg>
