<svg width="20" height="20" viewBox="0 0 20 20" fill="none" xmlns="http://www.w3.org/2000/svg">
<path d="M2 4.2C1.55817 4.2 1.2 4.55817 1.2 5C1.2 5.44183 1.55817 5.8 2 5.8V4.2ZM18 5.8C18.4418 5.8 18.8 5.44183 18.8 5C18.8 4.55817 18.4418 4.2 18 4.2V5.8ZM4.66667 9.2C4.22484 9.2 3.86667 9.55817 3.86667 10C3.86667 10.4418 4.22484 10.8 4.66667 10.8V9.2ZM15.3333 10.8C15.7752 10.8 16.1333 10.4418 16.1333 10C16.1333 9.55817 15.7752 9.2 15.3333 9.2V10.8ZM7.33333 14.2C6.89151 14.2 6.53333 14.5582 6.53333 15C6.53333 15.4418 6.89151 15.8 7.33333 15.8V14.2ZM12.6667 15.8C13.1085 15.8 13.4667 15.4418 13.4667 15C13.4667 14.5582 13.1085 14.2 12.6667 14.2V15.8ZM2 5.8H18V4.2H2V5.8ZM4.66667 10.8H15.3333V9.2H4.66667V10.8ZM7.33333 15.8H12.6667V14.2H7.33333V15.8Z" fill="#101828"/>
</svg>
