<svg width="5" height="8" viewBox="0 0 5 8" fill="none" xmlns="http://www.w3.org/2000/svg">
<path d="M4.4 3.99999L4.82426 4.42425C5.05858 4.18994 5.05858 3.81004 4.82426 3.57572L4.4 3.99999ZM1.62426 0.375724C1.38995 0.141409 1.01005 0.141409 0.775733 0.375724C0.541419 0.610038 0.541419 0.989937 0.775733 1.22425L1.62426 0.375724ZM0.775733 6.77572C0.541418 7.01004 0.541418 7.38994 0.775733 7.62425C1.01005 7.85857 1.38995 7.85857 1.62426 7.62425L0.775733 6.77572ZM0.775733 1.22425L3.97573 4.42425L4.82426 3.57572L1.62426 0.375724L0.775733 1.22425ZM3.97573 3.57572L0.775733 6.77572L1.62426 7.62425L4.82426 4.42425L3.97573 3.57572Z" fill="#D0D5DD"/>
</svg>
